/* XPM */
static char *_8305_22774d7570ae9cf654e83059506ecb91e9b6a0a7acd60895218708550fa7e613[] = {
/* columns rows colors chars-per-pixel */
"100 25 7 1 ",
"  c black",
". c #F50057",
"X c #00E676",
"o c #FF8F00",
"O c #FFEB3B",
"+ c #304FFE",
"@ c #9C27B0",
/* pixels */
"                                                                                                    ",
"ooooooooooooooooooooooooooooo XXXXXXXXXXXXXXXXXXXXXXXXXXXXXXXX .................................... ",
"ooooooooooooooooooooooooooooo XXXXXXXXXXXXXXXXXXXXXXXXXXXXXXXX .................................... ",
"ooooooooooooooooooooooooooooo XXXXXXXXXXXXXXXXXXXXXXXXXXXXXXXX .................................... ",
"ooooooooooooooooooooooooooooo XXXXXXXXXXXXXXXXXXXXXXXXXXXXXXXX .................................... ",
"ooooooooooooooooooooooooooooo XXXXXXXXXXXXXXXXXXXXXXXXXXXXXXXX .................................... ",
"ooooooooooooooooooooooooooooo XXXXXXXXXXXXXXXXXXXXXXXXXXXXXXXX .................................... ",
"ooooooooooooooooooooooooooooo XXXXXXXXXXXXXXXXXXXXXXXXXXXXXXXX .................................... ",
"                                                                                                    ",
"+++++++++++++ .................................. OOOOOOOOOOOOOOOOOOOOOOOOOOOOOOOOOO ++++++++++++++++",
"+++++++++++++ .................................. OOOOOOOOOOOOOOOOOOOOOOOOOOOOOOOOOO ++++++++++++++++",
"+++++++++++++ .................................. OOOOOOOOOOOOOOOOOOOOOOOOOOOOOOOOOO ++++++++++++++++",
"+++++++++++++ .................................. OOOOOOOOOOOOOOOOOOOOOOOOOOOOOOOOOO ++++++++++++++++",
"+++++++++++++ .................................. OOOOOOOOOOOOOOOOOOOOOOOOOOOOOOOOOO ++++++++++++++++",
"+++++++++++++ .................................. OOOOOOOOOOOOOOOOOOOOOOOOOOOOOOOOOO ++++++++++++++++",
"+++++++++++++ .................................. OOOOOOOOOOOOOOOOOOOOOOOOOOOOOOOOOO ++++++++++++++++",
"                                                                                                    ",
"OOOOOOOOOOOOOOOOOOOOOOOOOOOOO @@@@@@@@@@@@@@@@@@@@@@@@@@@@@@@@ XXXXXXXXXXXXXXXXXXXXXXXXXXXXXXXXXXXX ",
"OOOOOOOOOOOOOOOOOOOOOOOOOOOOO @@@@@@@@@@@@@@@@@@@@@@@@@@@@@@@@ XXXXXXXXXXXXXXXXXXXXXXXXXXXXXXXXXXXX ",
"OOOOOOOOOOOOOOOOOOOOOOOOOOOOO @@@@@@@@@@@@@@@@@@@@@@@@@@@@@@@@ XXXXXXXXXXXXXXXXXXXXXXXXXXXXXXXXXXXX ",
"OOOOOOOOOOOOOOOOOOOOOOOOOOOOO @@@@@@@@@@@@@@@@@@@@@@@@@@@@@@@@ XXXXXXXXXXXXXXXXXXXXXXXXXXXXXXXXXXXX ",
"OOOOOOOOOOOOOOOOOOOOOOOOOOOOO @@@@@@@@@@@@@@@@@@@@@@@@@@@@@@@@ XXXXXXXXXXXXXXXXXXXXXXXXXXXXXXXXXXXX ",
"OOOOOOOOOOOOOOOOOOOOOOOOOOOOO @@@@@@@@@@@@@@@@@@@@@@@@@@@@@@@@ XXXXXXXXXXXXXXXXXXXXXXXXXXXXXXXXXXXX ",
"OOOOOOOOOOOOOOOOOOOOOOOOOOOOO @@@@@@@@@@@@@@@@@@@@@@@@@@@@@@@@ XXXXXXXXXXXXXXXXXXXXXXXXXXXXXXXXXXXX ",
"                                                                                                    "
};
