/* XPM */
static char *_5986_17b47d02d708fd0f86664494d05c8802fce5f7cf064b8345492b83316431a473[] = {
/* columns rows colors chars-per-pixel */
"25 25 16 1 ",
"  c black",
". c #ED1C24",
"X c #FF7F27",
"o c #F75B63",
"O c #22B14C",
"+ c #1EE656",
"@ c #FFF200",
"# c #F7AB79",
"$ c #2E52A6",
"% c #3D63BD",
"& c #A349A4",
"* c #F26F9B",
"= c #CD55CF",
"- c #00A2E8",
"; c #99D9EA",
": c white",
/* pixels */
"                         ",
" ooooooooooo =========== ",
" o.......... =&&&&&&&&&& ",
" o.......... =&&&&&&&&&& ",
" o.......... =&&&&&&&&&& ",
" o.......... =&&&&&&&&&& ",
"                         ",
"+++++ ;;;;;;;;;;;; ++++++",
"OOOOO ;----------- +OOOOO",
"OOOOO ;----------- +OOOOO",
"OOOOO ;----------- +OOOOO",
"OOOOO ;----------- +OOOOO",
"                         ",
" ########### *********** ",
" #XXXXXXXXXX *oooooooooo ",
" #XXXXXXXXXX *oooooooooo ",
" #XXXXXXXXXX *oooooooooo ",
" #XXXXXXXXXX *oooooooooo ",
"                         ",
"%%%%% :::::::::::: %%%%%%",
"$$$$$ :@@@@@@@@@@@ %$$$$$",
"$$$$$ :@@@@@@@@@@@ %$$$$$",
"$$$$$ :@@@@@@@@@@@ %$$$$$",
"$$$$$ :@@@@@@@@@@@ %$$$$$",
"                         "
};
