/* XPM */
static char *_8746_d7e43c5f63893c80fd1f19d8fdf05bc5966f29c0f30e2fa381a3433f8d3a022d[] = {
/* columns rows colors chars-per-pixel */
"25 25 3 1 ",
"  c black",
". c #ED1C24",
"X c #F75B63",
/* pixels */
"                         ",
" XXXXXXXXXXX XXXXXXXXXXX ",
" X.......... X.......... ",
" X.......... X.......... ",
" X.......... X.......... ",
" X.......... X.......... ",
"                         ",
"XXXXX XXXXXXXXXXXX XXXXXX",
"..... X........... X.....",
"..... X........... X.....",
"..... X........... X.....",
"..... X........... X.....",
"                         ",
" XXXXXXXXXXX XXXXXXXXXXX ",
" X.......... X.......... ",
" X.......... X.......... ",
" X.......... X.......... ",
" X.......... X.......... ",
"                         ",
"XXXXX XXXXXXXXXXXX XXXXXX",
"..... X........... X.....",
"..... X........... X.....",
"..... X........... X.....",
"..... X........... X.....",
"                         "
};
