/* XPM */
static char *_906_ed460b0d607e5ceab5c5f809f7b7c76ecb3d777cd2159cf523a6a20bcf14bd1c[] = {
/* columns rows colors chars-per-pixel */
"100 100 11 1 ",
"  c black",
". c #4E342E",
"X c gray26",
"o c #795548",
"O c gray38",
"+ c gray46",
"@ c #8D6E63",
"# c gray62",
"$ c gray74",
"% c #FFD180",
"& c #FFECB3",
/* pixels */
"                                                                                                    ",
"                                                                                                    ",
" @@@@@@@@@@@@@@@@@@@@@@@@@@@@@@@@@@@@@@@@@@@@@@@@@  ############################################### ",
" @@@@@@@@@@@@@@@@@@@@@@@@@@@@@@@@@@@@@@@@@@@@@@@@@  ############################################### ",
" @@@@@@@@@@@@@@@@@@@@@@@@@@@@@@@@@@@@@@@@@@@@@@@@@  ############################################### ",
" @@@oooooooooooooooooooooooooooooooooooooooooooooo  ###++++++++++++++++++++++++++++++++++++++++++++ ",
" @@@oooooooooooooooooooooooooooooooooooooooooooooo  ###++++++++++++++++++++++++++++++++++++++++++++ ",
" @@ooooooooooooooooooooooooooooooooooooooooooooooo  ##+++++++++++++++++++++++++++++++++++++++++++++ ",
" @@ooooooooooooooooooooooooooooooooooooooooooooooo  ##+++++++++++++++++++++++++++++++++++++++++++++ ",
" @@ooooooooooooooooooooooooooooooooooooooooooooooo  ##+++++++++++++++++++++++++++++++++++++++++++++ ",
" @@ooooooooooooooooooooooooooooooooooooooooooooooo  ##+++++++++++++++++++++++++++++++++++++++++++++ ",
" @@ooooooooooooooooooooooooooooooooooooooooooooooo  ##+++++++++++++++++++++++++++++++++++++++++++++ ",
" @@ooooooooooooooooooooooooooooooooooooooooooooooo  ##+++++++++++++++++++++++++++++++++++++++++++++ ",
" @@ooooooooooooooooooooooooooooooooooooooooooooooo  ##+++++++++++++++++++++++++++++++++++++++++++++ ",
" @@ooooooooooooooooooooooooooooooooooooooooooooooo  ##+++++++++++++++++++++++++++++++++++++++++++++ ",
" @@ooooooooooooooooooooooooooooooooooooooooooooooo  ##+++++++++++++++++++++++++++++++++++++++++++++ ",
" @@ooooooooooooooooooooooooooooooooooooooooooooooo  ##+++++++++++++++++++++++++++++++++++++++++++++ ",
" @@ooooooooooooooooooooooooooooooooooooooooooooooo  ##+++++++++++++++++++++++++++++++++++++++++++++ ",
" @@ooooooooooooooooooooooooooooooooooooooooooooooo  ##+++++++++++++++++++++++++++++++++++++++++++++ ",
" @@ooooooooooooooooooooooooooooooooooooooooooooooo  ##+++++++++++++++++++++++++++++++++++++++++++++ ",
" @@ooooooooooooooooooooooooooooooooooooooooooooooo  ##+++++++++++++++++++++++++++++++++++++++++++++ ",
" @@ooooooooooooooooooooooooooooooooooooooooooooooo  ##+++++++++++++++++++++++++++++++++++++++++++++ ",
" @@ooooooooooooooooooooooooooooooooooooooooooooooo  ##+++++++++++++++++++++++++++++++++++++++++++++ ",
" @@ooooooooooooooooooooooooooooooooooooooooooooooo  ##+++++++++++++++++++++++++++++++++++++++++++++ ",
" @@ooooooooooooooooooooooooooooooooooooooooooooooo  ##+++++++++++++++++++++++++++++++++++++++++++++ ",
" @@ooooooooooooooooooooooooooooooooooooooooooooooo  ##+++++++++++++++++++++++++++++++++++++++++++++ ",
" @@ooooooooooooooooooooooooooooooooooooooooooooooo  ##+++++++++++++++++++++++++++++++++++++++++++++ ",
" @@ooooooooooooooooooooooooooooooooooooooooooooooo  ##+++++++++++++++++++++++++++++++++++++++++++++ ",
" @@ooooooooooooooooooooooooooooooooooooooooooooooo  ##+++++++++++++++++++++++++++++++++++++++++++++ ",
" @@ooooooooooooooooooooooooooooooooooooooooooooooo  ##+++++++++++++++++++++++++++++++++++++++++++++ ",
" @@ooooooooooooooooooooooooooooooooooooooooooooooo  ##+++++++++++++++++++++++++++++++++++++++++++++ ",
" @@ooooooooooooooooooooooooooooooooooooooooooooooo  ##+++++++++++++++++++++++++++++++++++++++++++++ ",
" @@ooooooooooooooooooooooooooooooooooooooooooooooo  ##+++++++++++++++++++++++++++++++++++++++++++++ ",
"                                                                                                    ",
"                                                                                                    ",
"&&&&&&&&&&&&&&&&&&&&&&&  OOOOOOOOOOOOOOOOOOOOOOOOOOOOOOOOOOOOOOOOOOOOOOOO  &&&&&&&&&&&&&&&&&&&&&&&&&",
"&&&&&&&&&&&&&&&&&&&&&&&  OOOOOOOOOOOOOOOOOOOOOOOOOOOOOOOOOOOOOOOOOOOOOOOO  &&&&&&&&&&&&&&&&&&&&&&&&&",
"&&&&&&&&&&&&&&&&&&&&&&&  OOOOOOOOOOOOOOOOOOOOOOOOOOOOOOOOOOOOOOOOOOOOOOOO  &&&&&&&&&&&&&&&&&&&&&&&&&",
"%%%%%%%%%%%%%%%%%%%%%%%  OOOXXXXXXXXXXXXXXXXXXXXXXXXXXXXXXXXXXXXXXXXXXXXX  &&&%%%%%%%%%%%%%%%%%%%%%%",
"%%%%%%%%%%%%%%%%%%%%%%%  OOOXXXXXXXXXXXXXXXXXXXXXXXXXXXXXXXXXXXXXXXXXXXXX  &&&%%%%%%%%%%%%%%%%%%%%%%",
"%%%%%%%%%%%%%%%%%%%%%%%  OOXXXXXXXXXXXXXXXXXXXXXXXXXXXXXXXXXXXXXXXXXXXXXX  &&%%%%%%%%%%%%%%%%%%%%%%%",
"%%%%%%%%%%%%%%%%%%%%%%%  OOXXXXXXXXXXXXXXXXXXXXXXXXXXXXXXXXXXXXXXXXXXXXXX  &&%%%%%%%%%%%%%%%%%%%%%%%",
"%%%%%%%%%%%%%%%%%%%%%%%  OOXXXXXXXXXXXXXXXXXXXXXXXXXXXXXXXXXXXXXXXXXXXXXX  &&%%%%%%%%%%%%%%%%%%%%%%%",
"%%%%%%%%%%%%%%%%%%%%%%%  OOXXXXXXXXXXXXXXXXXXXXXXXXXXXXXXXXXXXXXXXXXXXXXX  &&%%%%%%%%%%%%%%%%%%%%%%%",
"%%%%%%%%%%%%%%%%%%%%%%%  OOXXXXXXXXXXXXXXXXXXXXXXXXXXXXXXXXXXXXXXXXXXXXXX  &&%%%%%%%%%%%%%%%%%%%%%%%",
"%%%%%%%%%%%%%%%%%%%%%%%  OOXXXXXXXXXXXXXXXXXXXXXXXXXXXXXXXXXXXXXXXXXXXXXX  &&%%%%%%%%%%%%%%%%%%%%%%%",
"%%%%%%%%%%%%%%%%%%%%%%%  OOXXXXXXXXXXXXXXXXXXXXXXXXXXXXXXXXXXXXXXXXXXXXXX  &&%%%%%%%%%%%%%%%%%%%%%%%",
"%%%%%%%%%%%%%%%%%%%%%%%  OOXXXXXXXXXXXXXXXXXXXXXXXXXXXXXXXXXXXXXXXXXXXXXX  &&%%%%%%%%%%%%%%%%%%%%%%%",
"%%%%%%%%%%%%%%%%%%%%%%%  OOXXXXXXXXXXXXXXXXXXXXXXXXXXXXXXXXXXXXXXXXXXXXXX  &&%%%%%%%%%%%%%%%%%%%%%%%",
"%%%%%%%%%%%%%%%%%%%%%%%  OOXXXXXXXXXXXXXXXXXXXXXXXXXXXXXXXXXXXXXXXXXXXXXX  &&%%%%%%%%%%%%%%%%%%%%%%%",
"%%%%%%%%%%%%%%%%%%%%%%%  OOXXXXXXXXXXXXXXXXXXXXXXXXXXXXXXXXXXXXXXXXXXXXXX  &&%%%%%%%%%%%%%%%%%%%%%%%",
"%%%%%%%%%%%%%%%%%%%%%%%  OOXXXXXXXXXXXXXXXXXXXXXXXXXXXXXXXXXXXXXXXXXXXXXX  &&%%%%%%%%%%%%%%%%%%%%%%%",
"%%%%%%%%%%%%%%%%%%%%%%%  OOXXXXXXXXXXXXXXXXXXXXXXXXXXXXXXXXXXXXXXXXXXXXXX  &&%%%%%%%%%%%%%%%%%%%%%%%",
"%%%%%%%%%%%%%%%%%%%%%%%  OOXXXXXXXXXXXXXXXXXXXXXXXXXXXXXXXXXXXXXXXXXXXXXX  &&%%%%%%%%%%%%%%%%%%%%%%%",
"%%%%%%%%%%%%%%%%%%%%%%%  OOXXXXXXXXXXXXXXXXXXXXXXXXXXXXXXXXXXXXXXXXXXXXXX  &&%%%%%%%%%%%%%%%%%%%%%%%",
"%%%%%%%%%%%%%%%%%%%%%%%  OOXXXXXXXXXXXXXXXXXXXXXXXXXXXXXXXXXXXXXXXXXXXXXX  &&%%%%%%%%%%%%%%%%%%%%%%%",
"%%%%%%%%%%%%%%%%%%%%%%%  OOXXXXXXXXXXXXXXXXXXXXXXXXXXXXXXXXXXXXXXXXXXXXXX  &&%%%%%%%%%%%%%%%%%%%%%%%",
"%%%%%%%%%%%%%%%%%%%%%%%  OOXXXXXXXXXXXXXXXXXXXXXXXXXXXXXXXXXXXXXXXXXXXXXX  &&%%%%%%%%%%%%%%%%%%%%%%%",
"%%%%%%%%%%%%%%%%%%%%%%%  OOXXXXXXXXXXXXXXXXXXXXXXXXXXXXXXXXXXXXXXXXXXXXXX  &&%%%%%%%%%%%%%%%%%%%%%%%",
"%%%%%%%%%%%%%%%%%%%%%%%  OOXXXXXXXXXXXXXXXXXXXXXXXXXXXXXXXXXXXXXXXXXXXXXX  &&%%%%%%%%%%%%%%%%%%%%%%%",
"%%%%%%%%%%%%%%%%%%%%%%%  OOXXXXXXXXXXXXXXXXXXXXXXXXXXXXXXXXXXXXXXXXXXXXXX  &&%%%%%%%%%%%%%%%%%%%%%%%",
"%%%%%%%%%%%%%%%%%%%%%%%  OOXXXXXXXXXXXXXXXXXXXXXXXXXXXXXXXXXXXXXXXXXXXXXX  &&%%%%%%%%%%%%%%%%%%%%%%%",
"%%%%%%%%%%%%%%%%%%%%%%%  OOXXXXXXXXXXXXXXXXXXXXXXXXXXXXXXXXXXXXXXXXXXXXXX  &&%%%%%%%%%%%%%%%%%%%%%%%",
"%%%%%%%%%%%%%%%%%%%%%%%  OOXXXXXXXXXXXXXXXXXXXXXXXXXXXXXXXXXXXXXXXXXXXXXX  &&%%%%%%%%%%%%%%%%%%%%%%%",
"%%%%%%%%%%%%%%%%%%%%%%%  OOXXXXXXXXXXXXXXXXXXXXXXXXXXXXXXXXXXXXXXXXXXXXXX  &&%%%%%%%%%%%%%%%%%%%%%%%",
"                                                                                                    ",
"                                                                                                    ",
" $$$$$$$$$$$$$$$$$$$$$$$$$$$$$$$$$$$$$$$$$$$$$$$$$  ooooooooooooooooooooooooooooooooooooooooooooooo ",
" $$$$$$$$$$$$$$$$$$$$$$$$$$$$$$$$$$$$$$$$$$$$$$$$$  ooooooooooooooooooooooooooooooooooooooooooooooo ",
" $$$$$$$$$$$$$$$$$$$$$$$$$$$$$$$$$$$$$$$$$$$$$$$$$  ooooooooooooooooooooooooooooooooooooooooooooooo ",
" $$$##############################################  ooo............................................ ",
" $$$##############################################  ooo............................................ ",
" $$###############################################  oo............................................. ",
" $$###############################################  oo............................................. ",
" $$###############################################  oo............................................. ",
" $$###############################################  oo............................................. ",
" $$###############################################  oo............................................. ",
" $$###############################################  oo............................................. ",
" $$###############################################  oo............................................. ",
" $$###############################################  oo............................................. ",
" $$###############################################  oo............................................. ",
" $$###############################################  oo............................................. ",
" $$###############################################  oo............................................. ",
" $$###############################################  oo............................................. ",
" $$###############################################  oo............................................. ",
" $$###############################################  oo............................................. ",
" $$###############################################  oo............................................. ",
" $$###############################################  oo............................................. ",
" $$###############################################  oo............................................. ",
" $$###############################################  oo............................................. ",
" $$###############################################  oo............................................. ",
" $$###############################################  oo............................................. ",
" $$###############################################  oo............................................. ",
" $$###############################################  oo............................................. ",
" $$###############################################  oo............................................. ",
" $$###############################################  oo............................................. ",
" $$###############################################  oo............................................. ",
" $$###############################################  oo............................................. ",
"                                                                                                    ",
"                                                                                                    "
};
