/* XPM */
static char *_7738_6d3d215b28138d625f0b88cc5d09cb64526cb2d1c5b1569de1d52ae27994e50f[] = {
/* columns rows colors chars-per-pixel */
"25 25 2 1 ",
"  c black",
". c #FFFFFE",
/* pixels */
".........................",
".                       .",
".                       .",
".                       .",
".                       .",
".                       .",
".                       .",
".                       .",
".                       .",
".                       .",
".                       .",
".                       .",
".                       .",
".                       .",
".                       .",
".                       .",
".                       .",
".                       .",
".                       .",
".                       .",
".                       .",
".                       .",
".                       .",
".                       .",
"........................."
};
