/* XPM */
static char *_768_9bc5f265a80b7e05664b20a435f15c755461fed1e3b3315f338fd6f5a3e61510[] = {
/* columns rows colors chars-per-pixel */
"25 25 2 1 ",
"  c #7C0E8A",
". c #FFFFFE",
/* pixels */
".........................",
".                       .",
".                       .",
".                       .",
".                       .",
".                       .",
".                       .",
".                       .",
".                       .",
".                       .",
".                       .",
".                       .",
".                       .",
".                       .",
".                       .",
".                       .",
".                       .",
".                       .",
".                       .",
".                       .",
".                       .",
".                       .",
".                       .",
".                       .",
"........................."
};
