/* XPM */
static char *_1110_8b50a0bff87725aebf861a058fc890312c050d13859d16ba26c0087c62e55bf1[] = {
/* columns rows colors chars-per-pixel */
"100 100 2 1 ",
"  c #FFCC00",
". c None",
/* pixels */
"....................................................................................................",
"....................................................................................................",
"....................................................................................................",
"....................................................................................................",
"....................................................................................................",
"....................................................................................................",
"....................................................................................................",
"....................................................................................................",
"....................................................................................................",
"....................................................................................................",
"....................................................................................................",
"....................................................................................................",
"....................................................................................................",
"....................................................................................................",
"....................................................................................................",
"....................................................................................................",
"....................................................................................................",
"....................................................................................................",
"....................................................................................................",
"....................................................................................................",
"....................................................................................................",
"....................................................................................................",
"....................................................................................................",
"....................................................................................................",
"....................................................................................................",
"....................................................................................................",
"....................................................................................................",
"....................................................................................................",
"....................................................................................................",
"....................................................................................................",
"....................................................................................................",
"..............................................        ..............................................",
"...........................................              ...........................................",
".........................................                  .........................................",
".......................................                      .......................................",
"......................................                        ......................................",
".....................................                          .....................................",
"....................................                            ....................................",
"...................................                              ...................................",
"..................................                                ..................................",
"..................................                                ..................................",
".................................                                  .................................",
".................................                                  .................................",
"................................                                    ................................",
"................................                                    ................................",
"...............................                                     ................................",
"...............................                                      ...............................",
"...............................                                      ...............................",
"...............................                                      ...............................",
"...............................                                      ...............................",
"...............................                                      ...............................",
"...............................                                      ...............................",
"...............................                                      ...............................",
"...............................                                      ...............................",
"...............................                                     ................................",
"................................                                    ................................",
"................................                                    ................................",
"................................                                   .................................",
".................................                                  .................................",
".................................                                 ..................................",
"..................................                                ..................................",
"...................................                              ...................................",
"....................................                            ....................................",
".....................................                          .....................................",
"......................................                        ......................................",
".......................................                      .......................................",
".........................................                  .........................................",
"...........................................              ...........................................",
"..............................................        ..............................................",
"....................................................................................................",
"....................................................................................................",
"....................................................................................................",
"....................................................................................................",
"....................................................................................................",
"....................................................................................................",
"....................................................................................................",
"....................................................................................................",
"....................................................................................................",
"....................................................................................................",
"....................................................................................................",
"....................................................................................................",
"....................................................................................................",
"....................................................................................................",
"....................................................................................................",
"....................................................................................................",
"....................................................................................................",
"....................................................................................................",
"....................................................................................................",
"....................................................................................................",
"....................................................................................................",
"....................................................................................................",
"....................................................................................................",
"....................................................................................................",
"....................................................................................................",
"....................................................................................................",
"....................................................................................................",
"....................................................................................................",
"....................................................................................................",
"....................................................................................................",
"...................................................................................................."
};
