/* XPM */
static char *_2406_0af76056f19fa53eaf0a67f07d7c38cc71be3ec3fbbac76b2e9385781c88410a[] = {
/* columns rows colors chars-per-pixel */
"25 25 2 1 ",
"  c #F2E04B",
". c None",
/* pixels */
".........................",
".........................",
".........................",
".........................",
".........................",
".........................",
".........................",
".........................",
".........................",
".........      ..........",
".........      ..........",
".........      ..........",
"........        .........",
".........      ..........",
".........      ..........",
"...........  ............",
".........................",
".........................",
".........................",
".........................",
".........................",
".........................",
".........................",
".........................",
"........................."
};
